<svg width="12" height="12" viewBox="0 0 12 12" fill="none" xmlns="http://www.w3.org/2000/svg">
<path d="M5.27471 2.5992L9.39888 6.72395L5.21463 10.9088C5.02095 11.1025 4.7653 11.2218 4.49246 11.246L4.3898 11.25H1.33721C1.19207 11.25 1.05203 11.1965 0.943947 11.0996C0.835867 11.0027 0.767355 10.8693 0.751547 10.725L0.748047 10.6609V7.60829C0.748114 7.33438 0.84455 7.06923 1.02046 6.85929L1.09046 6.78345L5.27471 2.5992ZM7.10638 0.767536C7.31283 0.561066 7.58919 0.439511 7.88089 0.426875C8.1726 0.414239 8.45844 0.511441 8.68196 0.699286L8.75605 0.767536L11.2311 3.24262C11.4374 3.44904 11.5589 3.72528 11.5715 4.01685C11.5842 4.30841 11.4871 4.59413 11.2994 4.81762L11.2311 4.89229L10.2243 5.89912L6.10013 1.77437L7.10638 0.767536Z" fill="#805AD5"/>
<path d="M5.27471 2.5992L9.39888 6.72395L5.21463 10.9088C5.02095 11.1025 4.7653 11.2218 4.49246 11.246L4.3898 11.25H1.33721C1.19207 11.25 1.05203 11.1965 0.943947 11.0996C0.835867 11.0027 0.767355 10.8693 0.751547 10.725L0.748047 10.6609V7.60829C0.748114 7.33438 0.84455 7.06923 1.02046 6.85929L1.09046 6.78345L5.27471 2.5992ZM7.10638 0.767536C7.31283 0.561066 7.58919 0.439511 7.88089 0.426875C8.1726 0.414239 8.45844 0.511441 8.68196 0.699286L8.75605 0.767536L11.2311 3.24262C11.4374 3.44904 11.5589 3.72528 11.5715 4.01685C11.5842 4.30841 11.4871 4.59413 11.2994 4.81762L11.2311 4.89229L10.2243 5.89912L6.10013 1.77437L7.10638 0.767536Z" fill="black" fill-opacity="0.2"/>
</svg>
