<svg width="56" height="56" viewBox="0 0 56 56" fill="none" xmlns="http://www.w3.org/2000/svg">
<rect width="56" height="56" rx="8" fill="white"/>
<path d="M24.1761 43.0001C24.0086 43.0002 23.843 42.9637 23.6911 42.893C23.5392 42.8223 23.4046 42.7193 23.2968 42.591C23.189 42.4628 23.1106 42.3125 23.067 42.1507C23.0235 41.9889 23.016 41.8195 23.0449 41.6545V41.6476L24.8018 32.0001H17.9999C17.8111 32.0001 17.6262 31.9466 17.4665 31.8459C17.3068 31.7451 17.1789 31.6013 17.0976 31.4309C17.0162 31.2605 16.9848 31.0706 17.0069 30.8831C17.029 30.6956 17.1037 30.5182 17.2224 30.3713L30.9205 13.4376C31.0764 13.2397 31.2929 13.0983 31.5368 13.035C31.7807 12.9717 32.0386 12.9901 32.271 13.0872C32.5035 13.1844 32.6978 13.3551 32.8241 13.5731C32.9504 13.7911 33.0018 14.0445 32.9705 14.2945C32.9705 14.3132 32.9655 14.3313 32.9624 14.3501L31.1993 24.0001H37.9999C38.1887 24.0001 38.3736 24.0536 38.5333 24.1543C38.693 24.255 38.8209 24.3989 38.9022 24.5693C38.9836 24.7397 39.015 24.9296 38.9929 25.1171C38.9708 25.3046 38.8961 25.482 38.7774 25.6288L25.0774 42.5626C24.9697 42.6986 24.8328 42.8086 24.6768 42.8843C24.5207 42.9601 24.3496 42.9996 24.1761 43.0001Z" fill="#805AD5"/>
<path d="M24.1761 43.0001C24.0086 43.0002 23.843 42.9637 23.6911 42.893C23.5392 42.8223 23.4046 42.7193 23.2968 42.591C23.189 42.4628 23.1106 42.3125 23.067 42.1507C23.0235 41.9889 23.016 41.8195 23.0449 41.6545V41.6476L24.8018 32.0001H17.9999C17.8111 32.0001 17.6262 31.9466 17.4665 31.8459C17.3068 31.7451 17.1789 31.6013 17.0976 31.4309C17.0162 31.2605 16.9848 31.0706 17.0069 30.8831C17.029 30.6956 17.1037 30.5182 17.2224 30.3713L30.9205 13.4376C31.0764 13.2397 31.2929 13.0983 31.5368 13.035C31.7807 12.9717 32.0386 12.9901 32.271 13.0872C32.5035 13.1844 32.6978 13.3551 32.8241 13.5731C32.9504 13.7911 33.0018 14.0445 32.9705 14.2945C32.9705 14.3132 32.9655 14.3313 32.9624 14.3501L31.1993 24.0001H37.9999C38.1887 24.0001 38.3736 24.0536 38.5333 24.1543C38.693 24.255 38.8209 24.3989 38.9022 24.5693C38.9836 24.7397 39.015 24.9296 38.9929 25.1171C38.9708 25.3046 38.8961 25.482 38.7774 25.6288L25.0774 42.5626C24.9697 42.6986 24.8328 42.8086 24.6768 42.8843C24.5207 42.9601 24.3496 42.9996 24.1761 43.0001Z" fill="black" fill-opacity="0.2"/>
<path d="M24.1761 43.0001C24.0086 43.0002 23.843 42.9637 23.6911 42.893C23.5392 42.8223 23.4046 42.7193 23.2968 42.591C23.189 42.4628 23.1106 42.3125 23.067 42.1507C23.0235 41.9889 23.016 41.8195 23.0449 41.6545V41.6476L24.8018 32.0001H17.9999C17.8111 32.0001 17.6262 31.9466 17.4665 31.8459C17.3068 31.7451 17.1789 31.6013 17.0976 31.4309C17.0162 31.2605 16.9848 31.0706 17.0069 30.8831C17.029 30.6956 17.1037 30.5182 17.2224 30.3713L30.9205 13.4376C31.0764 13.2397 31.2929 13.0983 31.5368 13.035C31.7807 12.9717 32.0386 12.9901 32.271 13.0872C32.5035 13.1844 32.6978 13.3551 32.8241 13.5731C32.9504 13.7911 33.0018 14.0445 32.9705 14.2945C32.9705 14.3132 32.9655 14.3313 32.9624 14.3501L31.1993 24.0001H37.9999C38.1887 24.0001 38.3736 24.0536 38.5333 24.1543C38.693 24.255 38.8209 24.3989 38.9022 24.5693C38.9836 24.7397 39.015 24.9296 38.9929 25.1171C38.9708 25.3046 38.8961 25.482 38.7774 25.6288L25.0774 42.5626C24.9697 42.6986 24.8328 42.8086 24.6768 42.8843C24.5207 42.9601 24.3496 42.9996 24.1761 43.0001Z" stroke="#805AD5"/>
<path d="M24.1761 43.0001C24.0086 43.0002 23.843 42.9637 23.6911 42.893C23.5392 42.8223 23.4046 42.7193 23.2968 42.591C23.189 42.4628 23.1106 42.3125 23.067 42.1507C23.0235 41.9889 23.016 41.8195 23.0449 41.6545V41.6476L24.8018 32.0001H17.9999C17.8111 32.0001 17.6262 31.9466 17.4665 31.8459C17.3068 31.7451 17.1789 31.6013 17.0976 31.4309C17.0162 31.2605 16.9848 31.0706 17.0069 30.8831C17.029 30.6956 17.1037 30.5182 17.2224 30.3713L30.9205 13.4376C31.0764 13.2397 31.2929 13.0983 31.5368 13.035C31.7807 12.9717 32.0386 12.9901 32.271 13.0872C32.5035 13.1844 32.6978 13.3551 32.8241 13.5731C32.9504 13.7911 33.0018 14.0445 32.9705 14.2945C32.9705 14.3132 32.9655 14.3313 32.9624 14.3501L31.1993 24.0001H37.9999C38.1887 24.0001 38.3736 24.0536 38.5333 24.1543C38.693 24.255 38.8209 24.3989 38.9022 24.5693C38.9836 24.7397 39.015 24.9296 38.9929 25.1171C38.9708 25.3046 38.8961 25.482 38.7774 25.6288L25.0774 42.5626C24.9697 42.6986 24.8328 42.8086 24.6768 42.8843C24.5207 42.9601 24.3496 42.9996 24.1761 43.0001Z" stroke="black" stroke-opacity="0.2"/>
</svg>
