<svg width="12" height="12" viewBox="0 0 12 12" fill="none" xmlns="http://www.w3.org/2000/svg">
<path d="M10.6667 0.75H1.33333C1.17862 0.75 1.03025 0.811458 0.920854 0.920854C0.811458 1.03025 0.75 1.17862 0.75 1.33333V2.63242L0.754667 2.7625C0.783721 3.152 0.942245 3.52059 1.205 3.80958L3.66667 6.51683V11.25C3.66664 11.3424 3.68859 11.4335 3.73069 11.5158C3.77278 11.5981 3.83383 11.6692 3.9088 11.7233C3.98378 11.7773 4.07052 11.8128 4.16189 11.8268C4.25326 11.8407 4.34664 11.8328 4.43433 11.8036L7.93433 10.6369L7.99733 10.6118C8.09779 10.5648 8.18276 10.4901 8.24227 10.3965C8.30178 10.3029 8.33337 10.1943 8.33333 10.0833V6.2415L10.7372 3.83817C10.8999 3.67556 11.0289 3.48249 11.1169 3.26999C11.2049 3.0575 11.2501 2.82974 11.25 2.59975V1.33333C11.25 1.17862 11.1885 1.03025 11.0791 0.920854C10.9697 0.811458 10.8214 0.75 10.6667 0.75Z" fill="white"/>
</svg>
