<svg width="56" height="56" viewBox="0 0 56 56" fill="none" xmlns="http://www.w3.org/2000/svg">
<rect width="56" height="56" rx="8" fill="white"/>
<path d="M36.64 24.3475C35.8652 22.2919 34.7361 20.3881 33.3037 18.7225C30.825 15.8531 27 14 24 14C25.1875 18.375 23.1025 21.32 21.2006 24.2356C19.625 26.6475 18 29.1419 18 32C18 37.5138 22.4862 42 28 42C33.5138 42 38 37.5138 38 32C38 29.2937 37.5425 26.7194 36.64 24.3475ZM30.0206 38.1681C29.375 38.8556 28.5656 39 28 39C27.4344 39 26.625 38.8556 25.9794 38.1681C25.3337 37.4806 25 36.39 25 35C25 33.4287 25.5512 32.2325 26.0837 31.0763C26.4887 30.1969 27 29.375 27.0281 28.2956C27.7344 28.6631 28.5075 29.3525 29.1869 30.2506C30.3225 31.7506 30.9994 33.5269 30.9994 35.0006C31 36.39 30.6612 37.4856 30.0206 38.1681Z" fill="#805AD5"/>
<path d="M36.64 24.3475C35.8652 22.2919 34.7361 20.3881 33.3037 18.7225C30.825 15.8531 27 14 24 14C25.1875 18.375 23.1025 21.32 21.2006 24.2356C19.625 26.6475 18 29.1419 18 32C18 37.5138 22.4862 42 28 42C33.5138 42 38 37.5138 38 32C38 29.2937 37.5425 26.7194 36.64 24.3475ZM30.0206 38.1681C29.375 38.8556 28.5656 39 28 39C27.4344 39 26.625 38.8556 25.9794 38.1681C25.3337 37.4806 25 36.39 25 35C25 33.4287 25.5512 32.2325 26.0837 31.0763C26.4887 30.1969 27 29.375 27.0281 28.2956C27.7344 28.6631 28.5075 29.3525 29.1869 30.2506C30.3225 31.7506 30.9994 33.5269 30.9994 35.0006C31 36.39 30.6612 37.4856 30.0206 38.1681Z" fill="black" fill-opacity="0.2"/>
<path d="M36.64 24.3475C35.8652 22.2919 34.7361 20.3881 33.3037 18.7225C30.825 15.8531 27 14 24 14C25.1875 18.375 23.1025 21.32 21.2006 24.2356C19.625 26.6475 18 29.1419 18 32C18 37.5138 22.4862 42 28 42C33.5138 42 38 37.5138 38 32C38 29.2937 37.5425 26.7194 36.64 24.3475ZM30.0206 38.1681C29.375 38.8556 28.5656 39 28 39C27.4344 39 26.625 38.8556 25.9794 38.1681C25.3337 37.4806 25 36.39 25 35C25 33.4287 25.5512 32.2325 26.0837 31.0763C26.4887 30.1969 27 29.375 27.0281 28.2956C27.7344 28.6631 28.5075 29.3525 29.1869 30.2506C30.3225 31.7506 30.9994 33.5269 30.9994 35.0006C31 36.39 30.6612 37.4856 30.0206 38.1681Z" stroke="#805AD5"/>
<path d="M36.64 24.3475C35.8652 22.2919 34.7361 20.3881 33.3037 18.7225C30.825 15.8531 27 14 24 14C25.1875 18.375 23.1025 21.32 21.2006 24.2356C19.625 26.6475 18 29.1419 18 32C18 37.5138 22.4862 42 28 42C33.5138 42 38 37.5138 38 32C38 29.2937 37.5425 26.7194 36.64 24.3475ZM30.0206 38.1681C29.375 38.8556 28.5656 39 28 39C27.4344 39 26.625 38.8556 25.9794 38.1681C25.3337 37.4806 25 36.39 25 35C25 33.4287 25.5512 32.2325 26.0837 31.0763C26.4887 30.1969 27 29.375 27.0281 28.2956C27.7344 28.6631 28.5075 29.3525 29.1869 30.2506C30.3225 31.7506 30.9994 33.5269 30.9994 35.0006C31 36.39 30.6612 37.4856 30.0206 38.1681Z" stroke="black" stroke-opacity="0.2"/>
</svg>
