<svg width="20" height="20" viewBox="0 0 20 20" fill="none" xmlns="http://www.w3.org/2000/svg">
<rect width="20" height="20" rx="6" fill="white"/>
<path d="M9.99967 12.6667C10.1631 12.6668 10.3208 12.7268 10.4428 12.8354C10.5648 12.9441 10.6427 13.0938 10.6617 13.2561L10.6663 13.3334V14.3894L10.8617 14.1961C10.9764 14.0812 11.1291 14.0121 11.2911 14.0018C11.4531 13.9915 11.6133 14.0406 11.7417 14.14L11.8043 14.1954C11.9191 14.3102 11.9881 14.4629 11.9983 14.6249C12.0085 14.7869 11.9592 14.9471 11.8597 15.0754L11.8043 15.1387L10.471 16.472L10.4417 16.4994L10.3963 16.5361L10.3223 16.584L10.247 16.6194L10.177 16.6434L10.0983 16.6594L10.039 16.666H9.95967L9.92101 16.6627L9.84367 16.6494L9.77167 16.6274L9.71767 16.6047L9.65234 16.57L9.58834 16.5254C9.5673 16.5088 9.54726 16.491 9.52834 16.472L8.19501 15.1387C8.07417 15.019 8.00365 14.8577 7.99789 14.6877C7.99212 14.5177 8.05154 14.3519 8.16399 14.2243C8.27643 14.0967 8.4334 14.0169 8.60276 14.0012C8.77212 13.9856 8.94106 14.0352 9.07501 14.14L9.13767 14.1954L9.33301 14.3907V13.3334C9.33287 13.17 9.39274 13.0122 9.50126 12.8901C9.60979 12.7679 9.75939 12.6898 9.92167 12.6707L9.99967 12.6667ZM14.195 8.19538C14.3098 8.0806 14.4625 8.01165 14.6246 8.00146C14.7866 7.99127 14.9467 8.04055 15.075 8.14005L15.1377 8.19538L16.471 9.52872L16.4983 9.55805L16.535 9.60338L16.583 9.67738L16.619 9.75272L16.6423 9.82338L16.659 9.90138L16.6657 9.96138V10.0401L16.6617 10.0787L16.6483 10.1561L16.6263 10.2281L16.6037 10.2827L16.569 10.3474L16.5197 10.4174L16.471 10.4721L15.1377 11.8054C15.018 11.9262 14.8566 11.9967 14.6866 12.0025C14.5167 12.0083 14.3509 11.9489 14.2233 11.8364C14.0957 11.724 14.0159 11.567 14.0002 11.3976C13.9845 11.2283 14.0342 11.0593 14.139 10.9254L14.195 10.8621L14.3883 10.6674H13.333C13.1695 10.6675 13.0117 10.6075 12.8895 10.4989C12.7673 10.3902 12.6893 10.2405 12.6703 10.0781L12.6663 10.0001C12.6664 9.83676 12.7263 9.67916 12.8348 9.55714C12.9433 9.43511 13.0928 9.35716 13.255 9.33805L13.333 9.33405H14.3897L14.195 9.13872C14.0801 9.02401 14.011 8.87132 14.0007 8.7093C13.9904 8.54728 14.0396 8.38706 14.139 8.25872L14.195 8.19538ZM4.86167 8.19538C4.98165 8.07582 5.14263 8.0064 5.31193 8.00123C5.48123 7.99606 5.64615 8.05553 5.77319 8.16755C5.90024 8.27957 5.97988 8.43575 5.99594 8.60437C6.012 8.77298 5.96328 8.94139 5.85967 9.07538L5.80434 9.13872L5.60901 9.33405H6.66634C6.82963 9.33407 6.98723 9.39402 7.10926 9.50253C7.23128 9.61103 7.30924 9.76055 7.32834 9.92272L7.33301 10.0001C7.33297 10.1634 7.27292 10.3211 7.16428 10.4432C7.05564 10.5652 6.90596 10.6431 6.74367 10.6621L6.66634 10.6667H5.60967L5.80434 10.8614C5.91913 10.9762 5.98808 11.1289 5.99827 11.2909C6.00845 11.4529 5.95918 11.6131 5.85967 11.7414L5.80434 11.8047C5.68955 11.9195 5.53681 11.9885 5.3748 11.9986C5.21278 12.0088 5.05261 11.9596 4.92434 11.8601L4.86167 11.8047L3.52834 10.4714L3.46367 10.3967L3.41567 10.3227L3.38034 10.2474L3.35701 10.1774L3.34034 10.0987L3.33501 10.0567L3.33301 9.98672L3.33567 9.94005L3.34634 9.86605L3.36634 9.79138L3.39501 9.71805L3.43034 9.65272L3.47501 9.58872C3.49156 9.56766 3.50937 9.54763 3.52834 9.52872L4.86167 8.19538ZM9.99967 8.16672C10.4859 8.16672 10.9522 8.35987 11.296 8.70369C11.6399 9.0475 11.833 9.51382 11.833 10.0001C11.833 10.4863 11.6399 10.9526 11.296 11.2964C10.9522 11.6402 10.4859 11.8334 9.99967 11.8334C9.51344 11.8334 9.04713 11.6402 8.70331 11.2964C8.3595 10.9526 8.16634 10.4863 8.16634 10.0001C8.16634 9.51382 8.3595 9.0475 8.70331 8.70369C9.04713 8.35987 9.51344 8.16672 9.99967 8.16672ZM9.90034 3.34138L9.94967 3.33538L10.0363 3.33472L10.1163 3.34405L10.2077 3.36672L10.2817 3.39605L10.347 3.43072L10.4163 3.48005L10.471 3.52872L11.8043 4.86205C11.9252 4.98174 11.9957 5.1431 12.0015 5.31308C12.0072 5.48307 11.9478 5.64883 11.8354 5.77644C11.7229 5.90405 11.566 5.98385 11.3966 5.99952C11.2272 6.01519 11.0583 5.96553 10.9243 5.86072L10.8617 5.80538L10.6663 5.61005V6.66672C10.6665 6.83022 10.6065 6.98807 10.4978 7.11025C10.3892 7.23243 10.2394 7.31042 10.077 7.32938L9.99967 7.33338C9.83639 7.33336 9.67878 7.27341 9.55676 7.16491C9.43474 7.0564 9.35678 6.90688 9.33767 6.74472L9.33301 6.66672V5.60938L9.13767 5.80538C9.02288 5.92017 8.87015 5.98912 8.70813 5.99931C8.54611 6.0095 8.38594 5.96022 8.25767 5.86072L8.19501 5.80538C8.08022 5.69059 8.01127 5.53785 8.00108 5.37584C7.99089 5.21382 8.04017 5.05365 8.13967 4.92538L8.19501 4.86205L9.52834 3.52872L9.60301 3.46472L9.67634 3.41672L9.75234 3.38138L9.82234 3.35738L9.90034 3.34138Z" fill="#805AD5"/>
<path d="M9.99967 12.6667C10.1631 12.6668 10.3208 12.7268 10.4428 12.8354C10.5648 12.9441 10.6427 13.0938 10.6617 13.2561L10.6663 13.3334V14.3894L10.8617 14.1961C10.9764 14.0812 11.1291 14.0121 11.2911 14.0018C11.4531 13.9915 11.6133 14.0406 11.7417 14.14L11.8043 14.1954C11.9191 14.3102 11.9881 14.4629 11.9983 14.6249C12.0085 14.7869 11.9592 14.9471 11.8597 15.0754L11.8043 15.1387L10.471 16.472L10.4417 16.4994L10.3963 16.5361L10.3223 16.584L10.247 16.6194L10.177 16.6434L10.0983 16.6594L10.039 16.666H9.95967L9.92101 16.6627L9.84367 16.6494L9.77167 16.6274L9.71767 16.6047L9.65234 16.57L9.58834 16.5254C9.5673 16.5088 9.54726 16.491 9.52834 16.472L8.19501 15.1387C8.07417 15.019 8.00365 14.8577 7.99789 14.6877C7.99212 14.5177 8.05154 14.3519 8.16399 14.2243C8.27643 14.0967 8.4334 14.0169 8.60276 14.0012C8.77212 13.9856 8.94106 14.0352 9.07501 14.14L9.13767 14.1954L9.33301 14.3907V13.3334C9.33287 13.17 9.39274 13.0122 9.50126 12.8901C9.60979 12.7679 9.75939 12.6898 9.92167 12.6707L9.99967 12.6667ZM14.195 8.19538C14.3098 8.0806 14.4625 8.01165 14.6246 8.00146C14.7866 7.99127 14.9467 8.04055 15.075 8.14005L15.1377 8.19538L16.471 9.52872L16.4983 9.55805L16.535 9.60338L16.583 9.67738L16.619 9.75272L16.6423 9.82338L16.659 9.90138L16.6657 9.96138V10.0401L16.6617 10.0787L16.6483 10.1561L16.6263 10.2281L16.6037 10.2827L16.569 10.3474L16.5197 10.4174L16.471 10.4721L15.1377 11.8054C15.018 11.9262 14.8566 11.9967 14.6866 12.0025C14.5167 12.0083 14.3509 11.9489 14.2233 11.8364C14.0957 11.724 14.0159 11.567 14.0002 11.3976C13.9845 11.2283 14.0342 11.0593 14.139 10.9254L14.195 10.8621L14.3883 10.6674H13.333C13.1695 10.6675 13.0117 10.6075 12.8895 10.4989C12.7673 10.3902 12.6893 10.2405 12.6703 10.0781L12.6663 10.0001C12.6664 9.83676 12.7263 9.67916 12.8348 9.55714C12.9433 9.43511 13.0928 9.35716 13.255 9.33805L13.333 9.33405H14.3897L14.195 9.13872C14.0801 9.02401 14.011 8.87132 14.0007 8.7093C13.9904 8.54728 14.0396 8.38706 14.139 8.25872L14.195 8.19538ZM4.86167 8.19538C4.98165 8.07582 5.14263 8.0064 5.31193 8.00123C5.48123 7.99606 5.64615 8.05553 5.77319 8.16755C5.90024 8.27957 5.97988 8.43575 5.99594 8.60437C6.012 8.77298 5.96328 8.94139 5.85967 9.07538L5.80434 9.13872L5.60901 9.33405H6.66634C6.82963 9.33407 6.98723 9.39402 7.10926 9.50253C7.23128 9.61103 7.30924 9.76055 7.32834 9.92272L7.33301 10.0001C7.33297 10.1634 7.27292 10.3211 7.16428 10.4432C7.05564 10.5652 6.90596 10.6431 6.74367 10.6621L6.66634 10.6667H5.60967L5.80434 10.8614C5.91913 10.9762 5.98808 11.1289 5.99827 11.2909C6.00845 11.4529 5.95918 11.6131 5.85967 11.7414L5.80434 11.8047C5.68955 11.9195 5.53681 11.9885 5.3748 11.9986C5.21278 12.0088 5.05261 11.9596 4.92434 11.8601L4.86167 11.8047L3.52834 10.4714L3.46367 10.3967L3.41567 10.3227L3.38034 10.2474L3.35701 10.1774L3.34034 10.0987L3.33501 10.0567L3.33301 9.98672L3.33567 9.94005L3.34634 9.86605L3.36634 9.79138L3.39501 9.71805L3.43034 9.65272L3.47501 9.58872C3.49156 9.56766 3.50937 9.54763 3.52834 9.52872L4.86167 8.19538ZM9.99967 8.16672C10.4859 8.16672 10.9522 8.35987 11.296 8.70369C11.6399 9.0475 11.833 9.51382 11.833 10.0001C11.833 10.4863 11.6399 10.9526 11.296 11.2964C10.9522 11.6402 10.4859 11.8334 9.99967 11.8334C9.51344 11.8334 9.04713 11.6402 8.70331 11.2964C8.3595 10.9526 8.16634 10.4863 8.16634 10.0001C8.16634 9.51382 8.3595 9.0475 8.70331 8.70369C9.04713 8.35987 9.51344 8.16672 9.99967 8.16672ZM9.90034 3.34138L9.94967 3.33538L10.0363 3.33472L10.1163 3.34405L10.2077 3.36672L10.2817 3.39605L10.347 3.43072L10.4163 3.48005L10.471 3.52872L11.8043 4.86205C11.9252 4.98174 11.9957 5.1431 12.0015 5.31308C12.0072 5.48307 11.9478 5.64883 11.8354 5.77644C11.7229 5.90405 11.566 5.98385 11.3966 5.99952C11.2272 6.01519 11.0583 5.96553 10.9243 5.86072L10.8617 5.80538L10.6663 5.61005V6.66672C10.6665 6.83022 10.6065 6.98807 10.4978 7.11025C10.3892 7.23243 10.2394 7.31042 10.077 7.32938L9.99967 7.33338C9.83639 7.33336 9.67878 7.27341 9.55676 7.16491C9.43474 7.0564 9.35678 6.90688 9.33767 6.74472L9.33301 6.66672V5.60938L9.13767 5.80538C9.02288 5.92017 8.87015 5.98912 8.70813 5.99931C8.54611 6.0095 8.38594 5.96022 8.25767 5.86072L8.19501 5.80538C8.08022 5.69059 8.01127 5.53785 8.00108 5.37584C7.99089 5.21382 8.04017 5.05365 8.13967 4.92538L8.19501 4.86205L9.52834 3.52872L9.60301 3.46472L9.67634 3.41672L9.75234 3.38138L9.82234 3.35738L9.90034 3.34138Z" fill="black" fill-opacity="0.2"/>
</svg>
