<svg width="56" height="56" viewBox="0 0 56 56" fill="none" xmlns="http://www.w3.org/2000/svg">
<rect width="56" height="56" rx="8" fill="white"/>
<path d="M30 41H26C25.7348 41 25.4805 41.1054 25.2929 41.2929C25.1054 41.4805 25 41.7348 25 42C25 42.2652 25.1054 42.5196 25.2929 42.7071C25.4805 42.8947 25.7348 43 26 43H30C30.2652 43 30.5196 42.8947 30.7071 42.7071C30.8947 42.5196 31 42.2652 31 42C31 41.7348 30.8947 41.4805 30.7071 41.2929C30.5196 41.1054 30.2652 41 30 41ZM31 38H25C24.7348 38 24.4805 38.1054 24.2929 38.2929C24.1054 38.4805 24 38.7348 24 39C24 39.2652 24.1054 39.5196 24.2929 39.7071C24.4805 39.8947 24.7348 40 25 40H31C31.2652 40 31.5196 39.8947 31.7071 39.7071C31.8947 39.5196 32 39.2652 32 39C32 38.7348 31.8947 38.4805 31.7071 38.2929C31.5196 38.1054 31.2652 38 31 38ZM35.0888 15.9182C33.2094 14.0363 30.6919 13 28 13C26.6859 12.9969 25.3842 13.2534 24.1695 13.7549C22.9548 14.2563 21.8512 14.9928 20.922 15.922C19.9928 16.8512 19.2563 17.9548 18.7549 19.1695C18.2534 20.3842 17.9969 21.6859 18 23C18 25.9138 19.1169 28.6394 21.0625 30.4775L21.335 30.7332C22.4607 31.7857 24 33.2275 24 34.5V36C24 36.2652 24.1054 36.5196 24.2929 36.7071C24.4805 36.8947 24.7348 37 25 37H26.5C26.6326 37 26.7598 36.9474 26.8536 36.8536C26.9474 36.7598 27 36.6326 27 36.5V29.1763C27.0001 29.0752 26.9694 28.9764 26.9122 28.8931C26.855 28.8097 26.7738 28.7457 26.6794 28.7094C26.102 28.4738 25.5534 28.1729 25.0444 27.8125C24.93 27.7395 24.8317 27.6439 24.7554 27.5317C24.6792 27.4194 24.6266 27.2928 24.6008 27.1596C24.575 27.0263 24.5767 26.8892 24.6056 26.7566C24.6345 26.624 24.6901 26.4987 24.769 26.3883C24.8479 26.2779 24.9485 26.1847 25.0645 26.1144C25.1806 26.0441 25.3098 25.9981 25.4442 25.9793C25.5786 25.9606 25.7154 25.9693 25.8463 26.0051C25.9772 26.0409 26.0995 26.103 26.2057 26.1875C26.6682 26.515 27.5588 27 28 27C28.4413 27 29.3319 26.5138 29.7957 26.1875C30.0116 26.0518 30.2712 26.0037 30.5215 26.053C30.7717 26.1024 30.9936 26.2455 31.1418 26.4531C31.29 26.6607 31.3532 26.9171 31.3186 27.1698C31.284 27.4225 31.1542 27.6524 30.9557 27.8125C30.4466 28.1723 29.898 28.4725 29.3207 28.7075C29.2263 28.7438 29.1451 28.8078 29.0879 28.8912C29.0306 28.9745 29 29.0733 29 29.1744V36.5C29 36.6326 29.0527 36.7598 29.1465 36.8536C29.2402 36.9474 29.3674 37 29.5 37H31C31.2652 37 31.5196 36.8947 31.7071 36.7071C31.8947 36.5196 32 36.2652 32 36V34.5C32 33.2575 33.5225 31.8169 34.6344 30.7644L34.9413 30.4732C36.9425 28.5625 38 25.9757 38 23C38.0067 21.6858 37.7528 20.3833 37.2531 19.1678C36.7534 17.9522 36.0178 16.8477 35.0888 15.9182Z" fill="#ED8936"/>
</svg>
