<svg width="16" height="16" viewBox="0 0 16 16" fill="none" xmlns="http://www.w3.org/2000/svg">
<path fill-rule="evenodd" clip-rule="evenodd" d="M9.04001 0.836813C9.20242 0.887887 9.3443 0.989438 9.44501 1.1267C9.54572 1.26396 9.60003 1.42977 9.60001 1.60001V5.60001H12.8C12.9463 5.59995 13.0899 5.64002 13.215 5.71587C13.3402 5.79172 13.4421 5.90045 13.5098 6.03021C13.5774 6.15997 13.6082 6.3058 13.5987 6.45183C13.5892 6.59785 13.5399 6.73848 13.456 6.85841L7.85601 14.8584C7.75855 14.998 7.61908 15.1029 7.45789 15.1578C7.29669 15.2127 7.12219 15.2147 6.95977 15.1636C6.79735 15.1125 6.65548 15.0108 6.55481 14.8735C6.45413 14.7362 6.39991 14.5703 6.40001 14.4V10.4H3.20001C3.05368 10.4001 2.91013 10.36 2.78499 10.2842C2.65985 10.2083 2.55791 10.0996 2.49026 9.96982C2.42262 9.84006 2.39186 9.69423 2.40134 9.5482C2.41082 9.40217 2.46016 9.26154 2.54401 9.14161L8.14401 1.14161C8.24162 1.00224 8.38113 0.897623 8.54225 0.842954C8.70338 0.788285 8.87775 0.786414 9.04001 0.837613V0.836813Z" fill="white"/>
</svg>
