<svg width="56" height="56" viewBox="0 0 56 56" fill="none" xmlns="http://www.w3.org/2000/svg">
<rect width="56" height="56" rx="8" fill="white"/>
<path d="M41.8525 14.3913C41.8411 14.336 41.8142 14.2852 41.7749 14.2446C41.7356 14.2041 41.6856 14.1757 41.6307 14.1626C37.97 13.2676 29.5119 16.4569 24.9294 21.0376C24.1121 21.8483 23.367 22.7287 22.7025 23.6688C21.2894 23.5438 19.8763 23.6482 18.6719 24.1732C15.2738 25.6688 14.2844 29.5713 14.0088 31.2501C13.9931 31.3419 13.999 31.4362 14.026 31.5254C14.053 31.6146 14.1003 31.6964 14.1642 31.7642C14.2281 31.8321 14.3069 31.8842 14.3943 31.9164C14.4818 31.9487 14.5755 31.9602 14.6682 31.9501L20.125 31.3482C20.1289 31.7596 20.1538 32.1705 20.1994 32.5794C20.2269 32.8634 20.3529 33.1287 20.5557 33.3294L22.6688 35.4376C22.8697 35.64 23.1349 35.766 23.4188 35.7938C23.8254 35.8393 24.234 35.8641 24.6432 35.8682L24.0444 41.3182C24.0344 41.4108 24.046 41.5045 24.0783 41.5919C24.1106 41.6793 24.1627 41.758 24.2305 41.8219C24.2983 41.8857 24.38 41.933 24.4692 41.9601C24.5583 41.9871 24.6525 41.9931 24.7444 41.9776C26.42 41.7088 30.3294 40.7194 31.8163 37.3213C32.3413 36.1169 32.4488 34.7107 32.3275 33.3044C33.2699 32.64 34.1526 31.8946 34.9657 31.0769C39.5625 26.5032 42.7338 18.2338 41.8525 14.3913ZM30.3794 25.6207C29.9597 25.2012 29.6737 24.6667 29.5578 24.0847C29.4419 23.5027 29.5012 22.8994 29.7282 22.3511C29.9552 21.8028 30.3397 21.3341 30.8331 21.0044C31.3265 20.6747 31.9066 20.4987 32.5 20.4987C33.0935 20.4987 33.6736 20.6747 34.1669 21.0044C34.6603 21.3341 35.0449 21.8028 35.2719 22.3511C35.4989 22.8994 35.5582 23.5027 35.4422 24.0847C35.3263 24.6667 35.0404 25.2012 34.6207 25.6207C34.3423 25.8994 34.0118 26.1206 33.6479 26.2714C33.284 26.4223 32.8939 26.5 32.5 26.5C32.1061 26.5 31.7161 26.4223 31.3522 26.2714C30.9883 26.1206 30.6577 25.8994 30.3794 25.6207Z" fill="#805AD5"/>
<path d="M41.8525 14.3913C41.8411 14.336 41.8142 14.2852 41.7749 14.2446C41.7356 14.2041 41.6856 14.1757 41.6307 14.1626C37.97 13.2676 29.5119 16.4569 24.9294 21.0376C24.1121 21.8483 23.367 22.7287 22.7025 23.6688C21.2894 23.5438 19.8763 23.6482 18.6719 24.1732C15.2738 25.6688 14.2844 29.5713 14.0088 31.2501C13.9931 31.3419 13.999 31.4362 14.026 31.5254C14.053 31.6146 14.1003 31.6964 14.1642 31.7642C14.2281 31.8321 14.3069 31.8842 14.3943 31.9164C14.4818 31.9487 14.5755 31.9602 14.6682 31.9501L20.125 31.3482C20.1289 31.7596 20.1538 32.1705 20.1994 32.5794C20.2269 32.8634 20.3529 33.1287 20.5557 33.3294L22.6688 35.4376C22.8697 35.64 23.1349 35.766 23.4188 35.7938C23.8254 35.8393 24.234 35.8641 24.6432 35.8682L24.0444 41.3182C24.0344 41.4108 24.046 41.5045 24.0783 41.5919C24.1106 41.6793 24.1627 41.758 24.2305 41.8219C24.2983 41.8857 24.38 41.933 24.4692 41.9601C24.5583 41.9871 24.6525 41.9931 24.7444 41.9776C26.42 41.7088 30.3294 40.7194 31.8163 37.3213C32.3413 36.1169 32.4488 34.7107 32.3275 33.3044C33.2699 32.64 34.1526 31.8946 34.9657 31.0769C39.5625 26.5032 42.7338 18.2338 41.8525 14.3913ZM30.3794 25.6207C29.9597 25.2012 29.6737 24.6667 29.5578 24.0847C29.4419 23.5027 29.5012 22.8994 29.7282 22.3511C29.9552 21.8028 30.3397 21.3341 30.8331 21.0044C31.3265 20.6747 31.9066 20.4987 32.5 20.4987C33.0935 20.4987 33.6736 20.6747 34.1669 21.0044C34.6603 21.3341 35.0449 21.8028 35.2719 22.3511C35.4989 22.8994 35.5582 23.5027 35.4422 24.0847C35.3263 24.6667 35.0404 25.2012 34.6207 25.6207C34.3423 25.8994 34.0118 26.1206 33.6479 26.2714C33.284 26.4223 32.8939 26.5 32.5 26.5C32.1061 26.5 31.7161 26.4223 31.3522 26.2714C30.9883 26.1206 30.6577 25.8994 30.3794 25.6207Z" fill="black" fill-opacity="0.2"/>
<path d="M41.8525 14.3913C41.8411 14.336 41.8142 14.2852 41.7749 14.2446C41.7356 14.2041 41.6856 14.1757 41.6307 14.1626C37.97 13.2676 29.5119 16.4569 24.9294 21.0376C24.1121 21.8483 23.367 22.7287 22.7025 23.6688C21.2894 23.5438 19.8763 23.6482 18.6719 24.1732C15.2738 25.6688 14.2844 29.5713 14.0088 31.2501C13.9931 31.3419 13.999 31.4362 14.026 31.5254C14.053 31.6146 14.1003 31.6964 14.1642 31.7642C14.2281 31.8321 14.3069 31.8842 14.3943 31.9164C14.4818 31.9487 14.5755 31.9602 14.6682 31.9501L20.125 31.3482C20.1289 31.7596 20.1538 32.1705 20.1994 32.5794C20.2269 32.8634 20.3529 33.1287 20.5557 33.3294L22.6688 35.4376C22.8697 35.64 23.1349 35.766 23.4188 35.7938C23.8254 35.8393 24.234 35.8641 24.6432 35.8682L24.0444 41.3182C24.0344 41.4108 24.046 41.5045 24.0783 41.5919C24.1106 41.6793 24.1627 41.758 24.2305 41.8219C24.2983 41.8857 24.38 41.933 24.4692 41.9601C24.5583 41.9871 24.6525 41.9931 24.7444 41.9776C26.42 41.7088 30.3294 40.7194 31.8163 37.3213C32.3413 36.1169 32.4488 34.7107 32.3275 33.3044C33.2699 32.64 34.1526 31.8946 34.9657 31.0769C39.5625 26.5032 42.7338 18.2338 41.8525 14.3913ZM30.3794 25.6207C29.9597 25.2012 29.6737 24.6667 29.5578 24.0847C29.4419 23.5027 29.5012 22.8994 29.7282 22.3511C29.9552 21.8028 30.3397 21.3341 30.8331 21.0044C31.3265 20.6747 31.9066 20.4987 32.5 20.4987C33.0935 20.4987 33.6736 20.6747 34.1669 21.0044C34.6603 21.3341 35.0449 21.8028 35.2719 22.3511C35.4989 22.8994 35.5582 23.5027 35.4422 24.0847C35.3263 24.6667 35.0404 25.2012 34.6207 25.6207C34.3423 25.8994 34.0118 26.1206 33.6479 26.2714C33.284 26.4223 32.8939 26.5 32.5 26.5C32.1061 26.5 31.7161 26.4223 31.3522 26.2714C30.9883 26.1206 30.6577 25.8994 30.3794 25.6207Z" stroke="#805AD5"/>
<path d="M41.8525 14.3913C41.8411 14.336 41.8142 14.2852 41.7749 14.2446C41.7356 14.2041 41.6856 14.1757 41.6307 14.1626C37.97 13.2676 29.5119 16.4569 24.9294 21.0376C24.1121 21.8483 23.367 22.7287 22.7025 23.6688C21.2894 23.5438 19.8763 23.6482 18.6719 24.1732C15.2738 25.6688 14.2844 29.5713 14.0088 31.2501C13.9931 31.3419 13.999 31.4362 14.026 31.5254C14.053 31.6146 14.1003 31.6964 14.1642 31.7642C14.2281 31.8321 14.3069 31.8842 14.3943 31.9164C14.4818 31.9487 14.5755 31.9602 14.6682 31.9501L20.125 31.3482C20.1289 31.7596 20.1538 32.1705 20.1994 32.5794C20.2269 32.8634 20.3529 33.1287 20.5557 33.3294L22.6688 35.4376C22.8697 35.64 23.1349 35.766 23.4188 35.7938C23.8254 35.8393 24.234 35.8641 24.6432 35.8682L24.0444 41.3182C24.0344 41.4108 24.046 41.5045 24.0783 41.5919C24.1106 41.6793 24.1627 41.758 24.2305 41.8219C24.2983 41.8857 24.38 41.933 24.4692 41.9601C24.5583 41.9871 24.6525 41.9931 24.7444 41.9776C26.42 41.7088 30.3294 40.7194 31.8163 37.3213C32.3413 36.1169 32.4488 34.7107 32.3275 33.3044C33.2699 32.64 34.1526 31.8946 34.9657 31.0769C39.5625 26.5032 42.7338 18.2338 41.8525 14.3913ZM30.3794 25.6207C29.9597 25.2012 29.6737 24.6667 29.5578 24.0847C29.4419 23.5027 29.5012 22.8994 29.7282 22.3511C29.9552 21.8028 30.3397 21.3341 30.8331 21.0044C31.3265 20.6747 31.9066 20.4987 32.5 20.4987C33.0935 20.4987 33.6736 20.6747 34.1669 21.0044C34.6603 21.3341 35.0449 21.8028 35.2719 22.3511C35.4989 22.8994 35.5582 23.5027 35.4422 24.0847C35.3263 24.6667 35.0404 25.2012 34.6207 25.6207C34.3423 25.8994 34.0118 26.1206 33.6479 26.2714C33.284 26.4223 32.8939 26.5 32.5 26.5C32.1061 26.5 31.7161 26.4223 31.3522 26.2714C30.9883 26.1206 30.6577 25.8994 30.3794 25.6207Z" stroke="black" stroke-opacity="0.2"/>
<path d="M22.525 36.9644C22.1825 37.3075 21.6331 37.4413 20.9719 37.5556C19.4862 37.8088 18.1744 36.525 18.4412 35.0231C18.5431 34.4538 18.8444 33.6556 19.0319 33.4681C19.0729 33.4279 19.1001 33.3759 19.1098 33.3193C19.1195 33.2627 19.1112 33.2045 19.0859 33.153C19.0607 33.1014 19.0198 33.0591 18.9691 33.0321C18.9185 33.0051 18.8606 32.9948 18.8038 33.0025C17.973 33.1042 17.2001 33.4808 16.6081 34.0725C15.1388 35.5431 15 41 15 41C15 41 20.46 40.8613 21.9294 39.3906C22.5229 38.7991 22.9 38.0251 23 37.1931C23.0231 36.9319 22.705 36.7763 22.525 36.9644Z" fill="#805AD5"/>
<path d="M22.525 36.9644C22.1825 37.3075 21.6331 37.4413 20.9719 37.5556C19.4862 37.8088 18.1744 36.525 18.4412 35.0231C18.5431 34.4538 18.8444 33.6556 19.0319 33.4681C19.0729 33.4279 19.1001 33.3759 19.1098 33.3193C19.1195 33.2627 19.1112 33.2045 19.0859 33.153C19.0607 33.1014 19.0198 33.0591 18.9691 33.0321C18.9185 33.0051 18.8606 32.9948 18.8038 33.0025C17.973 33.1042 17.2001 33.4808 16.6081 34.0725C15.1388 35.5431 15 41 15 41C15 41 20.46 40.8613 21.9294 39.3906C22.5229 38.7991 22.9 38.0251 23 37.1931C23.0231 36.9319 22.705 36.7763 22.525 36.9644Z" fill="black" fill-opacity="0.2"/>
<path d="M22.525 36.9644C22.1825 37.3075 21.6331 37.4413 20.9719 37.5556C19.4862 37.8088 18.1744 36.525 18.4412 35.0231C18.5431 34.4538 18.8444 33.6556 19.0319 33.4681C19.0729 33.4279 19.1001 33.3759 19.1098 33.3193C19.1195 33.2627 19.1112 33.2045 19.0859 33.153C19.0607 33.1014 19.0198 33.0591 18.9691 33.0321C18.9185 33.0051 18.8606 32.9948 18.8038 33.0025C17.973 33.1042 17.2001 33.4808 16.6081 34.0725C15.1388 35.5431 15 41 15 41C15 41 20.46 40.8613 21.9294 39.3906C22.5229 38.7991 22.9 38.0251 23 37.1931C23.0231 36.9319 22.705 36.7763 22.525 36.9644Z" stroke="#805AD5"/>
<path d="M22.525 36.9644C22.1825 37.3075 21.6331 37.4413 20.9719 37.5556C19.4862 37.8088 18.1744 36.525 18.4412 35.0231C18.5431 34.4538 18.8444 33.6556 19.0319 33.4681C19.0729 33.4279 19.1001 33.3759 19.1098 33.3193C19.1195 33.2627 19.1112 33.2045 19.0859 33.153C19.0607 33.1014 19.0198 33.0591 18.9691 33.0321C18.9185 33.0051 18.8606 32.9948 18.8038 33.0025C17.973 33.1042 17.2001 33.4808 16.6081 34.0725C15.1388 35.5431 15 41 15 41C15 41 20.46 40.8613 21.9294 39.3906C22.5229 38.7991 22.9 38.0251 23 37.1931C23.0231 36.9319 22.705 36.7763 22.525 36.9644Z" stroke="black" stroke-opacity="0.2"/>
</svg>
