<svg width="56" height="56" viewBox="0 0 56 56" fill="none" xmlns="http://www.w3.org/2000/svg">
<rect width="56" height="56" rx="8" fill="white"/>
<path d="M24.9999 43.9998C24.6839 44.0014 24.3749 43.9065 24.1142 43.7279C23.8535 43.5492 23.6536 43.2952 23.5411 42.9998L21.0511 36.5248C21.0007 36.3943 20.9236 36.2759 20.8246 36.1769C20.7257 36.078 20.6072 36.0009 20.4768 35.9504L13.9999 33.4586C13.7048 33.3453 13.4511 33.1453 13.2721 32.8849C13.0931 32.6244 12.9973 32.3158 12.9973 31.9998C12.9973 31.6838 13.0931 31.3752 13.2721 31.1148C13.4511 30.8543 13.7048 30.6543 13.9999 30.5411L20.4749 28.0511C20.6054 28.0006 20.7239 27.9235 20.8228 27.8246C20.9217 27.7257 20.9988 27.6072 21.0493 27.4767L23.5411 20.9998C23.6544 20.7048 23.8544 20.451 24.1148 20.272C24.3753 20.093 24.6839 19.9972 24.9999 19.9972C25.3159 19.9972 25.6245 20.093 25.8849 20.272C26.1454 20.451 26.3454 20.7048 26.4586 20.9998L28.9486 27.4748C28.9991 27.6053 29.0762 27.7238 29.1751 27.8227C29.274 27.9216 29.3925 27.9988 29.523 28.0492L35.9605 30.5261C36.2676 30.6399 36.5321 30.8456 36.7181 31.1151C36.904 31.3846 37.0024 31.7049 36.9999 32.0323C36.9951 32.3428 36.8973 32.6448 36.719 32.8991C36.5407 33.1533 36.2902 33.3483 35.9999 33.4586L29.5249 35.9486C29.3944 35.999 29.2759 36.0762 29.177 36.1751C29.0781 36.274 29.0009 36.3925 28.9505 36.5229L26.4586 42.9998C26.3462 43.2952 26.1462 43.5492 25.8856 43.7279C25.6249 43.9065 25.3159 44.0014 24.9999 43.9998ZM17.4999 22.9998C17.3146 22.9998 17.1337 22.9437 16.9809 22.8388C16.8282 22.7339 16.7108 22.5852 16.6443 22.4123L15.5905 19.6723C15.5677 19.6124 15.5324 19.558 15.4871 19.5126C15.4417 19.4673 15.3873 19.432 15.3274 19.4092L12.5874 18.3555C12.4145 18.2889 12.2658 18.1715 12.161 18.0187C12.0561 17.866 12 17.6851 12 17.4998C12 17.3146 12.0561 17.1336 12.161 16.9809C12.2658 16.8282 12.4145 16.7108 12.5874 16.6442L15.3274 15.5905C15.3872 15.5675 15.4416 15.5322 15.4869 15.4869C15.5323 15.4416 15.5676 15.3872 15.5905 15.3273L16.6349 12.6117C16.6938 12.4518 16.7951 12.311 16.928 12.2044C17.061 12.0978 17.2204 12.0295 17.3893 12.0067C17.592 11.9821 17.7971 12.0258 17.9722 12.131C18.1472 12.2362 18.2821 12.3968 18.3555 12.5873L19.4093 15.3273C19.4322 15.3872 19.4675 15.4416 19.5128 15.4869C19.5582 15.5322 19.6125 15.5675 19.6724 15.5905L22.4124 16.6442C22.5853 16.7108 22.7339 16.8282 22.8388 16.9809C22.9436 17.1336 22.9998 17.3146 22.9998 17.4998C22.9998 17.6851 22.9436 17.866 22.8388 18.0187C22.7339 18.1715 22.5853 18.2889 22.4124 18.3555L19.6724 19.4092C19.6125 19.432 19.558 19.4673 19.5127 19.5126C19.4673 19.558 19.4321 19.6124 19.4093 19.6723L18.3555 22.4123C18.2889 22.5852 18.1716 22.7339 18.0188 22.8388C17.8661 22.9437 17.6852 22.9998 17.4999 22.9998ZM36.9999 27.9998C36.7978 27.9998 36.6004 27.9385 36.4338 27.824C36.2672 27.7095 36.1393 27.5472 36.0668 27.3586L34.6393 23.648C34.6141 23.5826 34.5756 23.5232 34.526 23.4737C34.4765 23.4241 34.4171 23.3856 34.3518 23.3605L30.6411 21.933C30.4526 21.8603 30.2905 21.7323 30.1762 21.5657C30.0619 21.3991 30.0007 21.2019 30.0007 20.9998C30.0007 20.7978 30.0619 20.6005 30.1762 20.4339C30.2905 20.2674 30.4526 20.1393 30.6411 20.0667L34.3518 18.6392C34.4171 18.6141 34.4765 18.5755 34.526 18.526C34.5756 18.4765 34.6141 18.4171 34.6393 18.3517L36.0561 14.6673C36.1208 14.4931 36.2315 14.3397 36.3765 14.2233C36.5214 14.107 36.6952 14.0321 36.8793 14.0067C37.1005 13.9799 37.3243 14.0278 37.5152 14.1427C37.7061 14.2577 37.8531 14.433 37.933 14.6411L39.3605 18.3517C39.3856 18.4171 39.4242 18.4765 39.4737 18.526C39.5232 18.5755 39.5826 18.6141 39.648 18.6392L43.3586 20.0667C43.5471 20.1393 43.7092 20.2674 43.8236 20.4339C43.9379 20.6005 43.9991 20.7978 43.9991 20.9998C43.9991 21.2019 43.9379 21.3991 43.8236 21.5657C43.7092 21.7323 43.5471 21.8603 43.3586 21.933L39.648 23.3605C39.5826 23.3856 39.5232 23.4241 39.4737 23.4737C39.4242 23.5232 39.3856 23.5826 39.3605 23.648L37.933 27.3586C37.8605 27.5472 37.7325 27.7095 37.5659 27.824C37.3994 27.9385 37.202 27.9998 36.9999 27.9998Z" fill="#805AD5"/>
<path d="M24.9999 43.9998C24.6839 44.0014 24.3749 43.9065 24.1142 43.7279C23.8535 43.5492 23.6536 43.2952 23.5411 42.9998L21.0511 36.5248C21.0007 36.3943 20.9236 36.2759 20.8246 36.1769C20.7257 36.078 20.6072 36.0009 20.4768 35.9504L13.9999 33.4586C13.7048 33.3453 13.4511 33.1453 13.2721 32.8849C13.0931 32.6244 12.9973 32.3158 12.9973 31.9998C12.9973 31.6838 13.0931 31.3752 13.2721 31.1148C13.4511 30.8543 13.7048 30.6543 13.9999 30.5411L20.4749 28.0511C20.6054 28.0006 20.7239 27.9235 20.8228 27.8246C20.9217 27.7257 20.9988 27.6072 21.0493 27.4767L23.5411 20.9998C23.6544 20.7048 23.8544 20.451 24.1148 20.272C24.3753 20.093 24.6839 19.9972 24.9999 19.9972C25.3159 19.9972 25.6245 20.093 25.8849 20.272C26.1454 20.451 26.3454 20.7048 26.4586 20.9998L28.9486 27.4748C28.9991 27.6053 29.0762 27.7238 29.1751 27.8227C29.274 27.9216 29.3925 27.9988 29.523 28.0492L35.9605 30.5261C36.2676 30.6399 36.5321 30.8456 36.7181 31.1151C36.904 31.3846 37.0024 31.7049 36.9999 32.0323C36.9951 32.3428 36.8973 32.6448 36.719 32.8991C36.5407 33.1533 36.2902 33.3483 35.9999 33.4586L29.5249 35.9486C29.3944 35.999 29.2759 36.0762 29.177 36.1751C29.0781 36.274 29.0009 36.3925 28.9505 36.5229L26.4586 42.9998C26.3462 43.2952 26.1462 43.5492 25.8856 43.7279C25.6249 43.9065 25.3159 44.0014 24.9999 43.9998ZM17.4999 22.9998C17.3146 22.9998 17.1337 22.9437 16.9809 22.8388C16.8282 22.7339 16.7108 22.5852 16.6443 22.4123L15.5905 19.6723C15.5677 19.6124 15.5324 19.558 15.4871 19.5126C15.4417 19.4673 15.3873 19.432 15.3274 19.4092L12.5874 18.3555C12.4145 18.2889 12.2658 18.1715 12.161 18.0187C12.0561 17.866 12 17.6851 12 17.4998C12 17.3146 12.0561 17.1336 12.161 16.9809C12.2658 16.8282 12.4145 16.7108 12.5874 16.6442L15.3274 15.5905C15.3872 15.5675 15.4416 15.5322 15.4869 15.4869C15.5323 15.4416 15.5676 15.3872 15.5905 15.3273L16.6349 12.6117C16.6938 12.4518 16.7951 12.311 16.928 12.2044C17.061 12.0978 17.2204 12.0295 17.3893 12.0067C17.592 11.9821 17.7971 12.0258 17.9722 12.131C18.1472 12.2362 18.2821 12.3968 18.3555 12.5873L19.4093 15.3273C19.4322 15.3872 19.4675 15.4416 19.5128 15.4869C19.5582 15.5322 19.6125 15.5675 19.6724 15.5905L22.4124 16.6442C22.5853 16.7108 22.7339 16.8282 22.8388 16.9809C22.9436 17.1336 22.9998 17.3146 22.9998 17.4998C22.9998 17.6851 22.9436 17.866 22.8388 18.0187C22.7339 18.1715 22.5853 18.2889 22.4124 18.3555L19.6724 19.4092C19.6125 19.432 19.558 19.4673 19.5127 19.5126C19.4673 19.558 19.4321 19.6124 19.4093 19.6723L18.3555 22.4123C18.2889 22.5852 18.1716 22.7339 18.0188 22.8388C17.8661 22.9437 17.6852 22.9998 17.4999 22.9998ZM36.9999 27.9998C36.7978 27.9998 36.6004 27.9385 36.4338 27.824C36.2672 27.7095 36.1393 27.5472 36.0668 27.3586L34.6393 23.648C34.6141 23.5826 34.5756 23.5232 34.526 23.4737C34.4765 23.4241 34.4171 23.3856 34.3518 23.3605L30.6411 21.933C30.4526 21.8603 30.2905 21.7323 30.1762 21.5657C30.0619 21.3991 30.0007 21.2019 30.0007 20.9998C30.0007 20.7978 30.0619 20.6005 30.1762 20.4339C30.2905 20.2674 30.4526 20.1393 30.6411 20.0667L34.3518 18.6392C34.4171 18.6141 34.4765 18.5755 34.526 18.526C34.5756 18.4765 34.6141 18.4171 34.6393 18.3517L36.0561 14.6673C36.1208 14.4931 36.2315 14.3397 36.3765 14.2233C36.5214 14.107 36.6952 14.0321 36.8793 14.0067C37.1005 13.9799 37.3243 14.0278 37.5152 14.1427C37.7061 14.2577 37.8531 14.433 37.933 14.6411L39.3605 18.3517C39.3856 18.4171 39.4242 18.4765 39.4737 18.526C39.5232 18.5755 39.5826 18.6141 39.648 18.6392L43.3586 20.0667C43.5471 20.1393 43.7092 20.2674 43.8236 20.4339C43.9379 20.6005 43.9991 20.7978 43.9991 20.9998C43.9991 21.2019 43.9379 21.3991 43.8236 21.5657C43.7092 21.7323 43.5471 21.8603 43.3586 21.933L39.648 23.3605C39.5826 23.3856 39.5232 23.4241 39.4737 23.4737C39.4242 23.5232 39.3856 23.5826 39.3605 23.648L37.933 27.3586C37.8605 27.5472 37.7325 27.7095 37.5659 27.824C37.3994 27.9385 37.202 27.9998 36.9999 27.9998Z" fill="black" fill-opacity="0.2"/>
<path d="M24.9999 43.9998C24.6839 44.0014 24.3749 43.9065 24.1142 43.7279C23.8535 43.5492 23.6536 43.2952 23.5411 42.9998L21.0511 36.5248C21.0007 36.3943 20.9236 36.2759 20.8246 36.1769C20.7257 36.078 20.6072 36.0009 20.4768 35.9504L13.9999 33.4586C13.7048 33.3453 13.4511 33.1453 13.2721 32.8849C13.0931 32.6244 12.9973 32.3158 12.9973 31.9998C12.9973 31.6838 13.0931 31.3752 13.2721 31.1148C13.4511 30.8543 13.7048 30.6543 13.9999 30.5411L20.4749 28.0511C20.6054 28.0006 20.7239 27.9235 20.8228 27.8246C20.9217 27.7257 20.9988 27.6072 21.0493 27.4767L23.5411 20.9998C23.6544 20.7048 23.8544 20.451 24.1148 20.272C24.3753 20.093 24.6839 19.9972 24.9999 19.9972C25.3159 19.9972 25.6245 20.093 25.8849 20.272C26.1454 20.451 26.3454 20.7048 26.4586 20.9998L28.9486 27.4748C28.9991 27.6053 29.0762 27.7238 29.1751 27.8227C29.274 27.9216 29.3925 27.9988 29.523 28.0492L35.9605 30.5261C36.2676 30.6399 36.5321 30.8456 36.7181 31.1151C36.904 31.3846 37.0024 31.7049 36.9999 32.0323C36.9951 32.3428 36.8973 32.6448 36.719 32.8991C36.5407 33.1533 36.2902 33.3483 35.9999 33.4586L29.5249 35.9486C29.3944 35.999 29.2759 36.0762 29.177 36.1751C29.0781 36.274 29.0009 36.3925 28.9505 36.5229L26.4586 42.9998C26.3462 43.2952 26.1462 43.5492 25.8856 43.7279C25.6249 43.9065 25.3159 44.0014 24.9999 43.9998ZM17.4999 22.9998C17.3146 22.9998 17.1337 22.9437 16.9809 22.8388C16.8282 22.7339 16.7108 22.5852 16.6443 22.4123L15.5905 19.6723C15.5677 19.6124 15.5324 19.558 15.4871 19.5126C15.4417 19.4673 15.3873 19.432 15.3274 19.4092L12.5874 18.3555C12.4145 18.2889 12.2658 18.1715 12.161 18.0187C12.0561 17.866 12 17.6851 12 17.4998C12 17.3146 12.0561 17.1336 12.161 16.9809C12.2658 16.8282 12.4145 16.7108 12.5874 16.6442L15.3274 15.5905C15.3872 15.5675 15.4416 15.5322 15.4869 15.4869C15.5323 15.4416 15.5676 15.3872 15.5905 15.3273L16.6349 12.6117C16.6938 12.4518 16.7951 12.311 16.928 12.2044C17.061 12.0978 17.2204 12.0295 17.3893 12.0067C17.592 11.9821 17.7971 12.0258 17.9722 12.131C18.1472 12.2362 18.2821 12.3968 18.3555 12.5873L19.4093 15.3273C19.4322 15.3872 19.4675 15.4416 19.5128 15.4869C19.5582 15.5322 19.6125 15.5675 19.6724 15.5905L22.4124 16.6442C22.5853 16.7108 22.7339 16.8282 22.8388 16.9809C22.9436 17.1336 22.9998 17.3146 22.9998 17.4998C22.9998 17.6851 22.9436 17.866 22.8388 18.0187C22.7339 18.1715 22.5853 18.2889 22.4124 18.3555L19.6724 19.4092C19.6125 19.432 19.558 19.4673 19.5127 19.5126C19.4673 19.558 19.4321 19.6124 19.4093 19.6723L18.3555 22.4123C18.2889 22.5852 18.1716 22.7339 18.0188 22.8388C17.8661 22.9437 17.6852 22.9998 17.4999 22.9998ZM36.9999 27.9998C36.7978 27.9998 36.6004 27.9385 36.4338 27.824C36.2672 27.7095 36.1393 27.5472 36.0668 27.3586L34.6393 23.648C34.6141 23.5826 34.5756 23.5232 34.526 23.4737C34.4765 23.4241 34.4171 23.3856 34.3518 23.3605L30.6411 21.933C30.4526 21.8603 30.2905 21.7323 30.1762 21.5657C30.0619 21.3991 30.0007 21.2019 30.0007 20.9998C30.0007 20.7978 30.0619 20.6005 30.1762 20.4339C30.2905 20.2674 30.4526 20.1393 30.6411 20.0667L34.3518 18.6392C34.4171 18.6141 34.4765 18.5755 34.526 18.526C34.5756 18.4765 34.6141 18.4171 34.6393 18.3517L36.0561 14.6673C36.1208 14.4931 36.2315 14.3397 36.3765 14.2233C36.5214 14.107 36.6952 14.0321 36.8793 14.0067C37.1005 13.9799 37.3243 14.0278 37.5152 14.1427C37.7061 14.2577 37.8531 14.433 37.933 14.6411L39.3605 18.3517C39.3856 18.4171 39.4242 18.4765 39.4737 18.526C39.5232 18.5755 39.5826 18.6141 39.648 18.6392L43.3586 20.0667C43.5471 20.1393 43.7092 20.2674 43.8236 20.4339C43.9379 20.6005 43.9991 20.7978 43.9991 20.9998C43.9991 21.2019 43.9379 21.3991 43.8236 21.5657C43.7092 21.7323 43.5471 21.8603 43.3586 21.933L39.648 23.3605C39.5826 23.3856 39.5232 23.4241 39.4737 23.4737C39.4242 23.5232 39.3856 23.5826 39.3605 23.648L37.933 27.3586C37.8605 27.5472 37.7325 27.7095 37.5659 27.824C37.3994 27.9385 37.202 27.9998 36.9999 27.9998Z" stroke="#805AD5"/>
<path d="M24.9999 43.9998C24.6839 44.0014 24.3749 43.9065 24.1142 43.7279C23.8535 43.5492 23.6536 43.2952 23.5411 42.9998L21.0511 36.5248C21.0007 36.3943 20.9236 36.2759 20.8246 36.1769C20.7257 36.078 20.6072 36.0009 20.4768 35.9504L13.9999 33.4586C13.7048 33.3453 13.4511 33.1453 13.2721 32.8849C13.0931 32.6244 12.9973 32.3158 12.9973 31.9998C12.9973 31.6838 13.0931 31.3752 13.2721 31.1148C13.4511 30.8543 13.7048 30.6543 13.9999 30.5411L20.4749 28.0511C20.6054 28.0006 20.7239 27.9235 20.8228 27.8246C20.9217 27.7257 20.9988 27.6072 21.0493 27.4767L23.5411 20.9998C23.6544 20.7048 23.8544 20.451 24.1148 20.272C24.3753 20.093 24.6839 19.9972 24.9999 19.9972C25.3159 19.9972 25.6245 20.093 25.8849 20.272C26.1454 20.451 26.3454 20.7048 26.4586 20.9998L28.9486 27.4748C28.9991 27.6053 29.0762 27.7238 29.1751 27.8227C29.274 27.9216 29.3925 27.9988 29.523 28.0492L35.9605 30.5261C36.2676 30.6399 36.5321 30.8456 36.7181 31.1151C36.904 31.3846 37.0024 31.7049 36.9999 32.0323C36.9951 32.3428 36.8973 32.6448 36.719 32.8991C36.5407 33.1533 36.2902 33.3483 35.9999 33.4586L29.5249 35.9486C29.3944 35.999 29.2759 36.0762 29.177 36.1751C29.0781 36.274 29.0009 36.3925 28.9505 36.5229L26.4586 42.9998C26.3462 43.2952 26.1462 43.5492 25.8856 43.7279C25.6249 43.9065 25.3159 44.0014 24.9999 43.9998ZM17.4999 22.9998C17.3146 22.9998 17.1337 22.9437 16.9809 22.8388C16.8282 22.7339 16.7108 22.5852 16.6443 22.4123L15.5905 19.6723C15.5677 19.6124 15.5324 19.558 15.4871 19.5126C15.4417 19.4673 15.3873 19.432 15.3274 19.4092L12.5874 18.3555C12.4145 18.2889 12.2658 18.1715 12.161 18.0187C12.0561 17.866 12 17.6851 12 17.4998C12 17.3146 12.0561 17.1336 12.161 16.9809C12.2658 16.8282 12.4145 16.7108 12.5874 16.6442L15.3274 15.5905C15.3872 15.5675 15.4416 15.5322 15.4869 15.4869C15.5323 15.4416 15.5676 15.3872 15.5905 15.3273L16.6349 12.6117C16.6938 12.4518 16.7951 12.311 16.928 12.2044C17.061 12.0978 17.2204 12.0295 17.3893 12.0067C17.592 11.9821 17.7971 12.0258 17.9722 12.131C18.1472 12.2362 18.2821 12.3968 18.3555 12.5873L19.4093 15.3273C19.4322 15.3872 19.4675 15.4416 19.5128 15.4869C19.5582 15.5322 19.6125 15.5675 19.6724 15.5905L22.4124 16.6442C22.5853 16.7108 22.7339 16.8282 22.8388 16.9809C22.9436 17.1336 22.9998 17.3146 22.9998 17.4998C22.9998 17.6851 22.9436 17.866 22.8388 18.0187C22.7339 18.1715 22.5853 18.2889 22.4124 18.3555L19.6724 19.4092C19.6125 19.432 19.558 19.4673 19.5127 19.5126C19.4673 19.558 19.4321 19.6124 19.4093 19.6723L18.3555 22.4123C18.2889 22.5852 18.1716 22.7339 18.0188 22.8388C17.8661 22.9437 17.6852 22.9998 17.4999 22.9998ZM36.9999 27.9998C36.7978 27.9998 36.6004 27.9385 36.4338 27.824C36.2672 27.7095 36.1393 27.5472 36.0668 27.3586L34.6393 23.648C34.6141 23.5826 34.5756 23.5232 34.526 23.4737C34.4765 23.4241 34.4171 23.3856 34.3518 23.3605L30.6411 21.933C30.4526 21.8603 30.2905 21.7323 30.1762 21.5657C30.0619 21.3991 30.0007 21.2019 30.0007 20.9998C30.0007 20.7978 30.0619 20.6005 30.1762 20.4339C30.2905 20.2674 30.4526 20.1393 30.6411 20.0667L34.3518 18.6392C34.4171 18.6141 34.4765 18.5755 34.526 18.526C34.5756 18.4765 34.6141 18.4171 34.6393 18.3517L36.0561 14.6673C36.1208 14.4931 36.2315 14.3397 36.3765 14.2233C36.5214 14.107 36.6952 14.0321 36.8793 14.0067C37.1005 13.9799 37.3243 14.0278 37.5152 14.1427C37.7061 14.2577 37.8531 14.433 37.933 14.6411L39.3605 18.3517C39.3856 18.4171 39.4242 18.4765 39.4737 18.526C39.5232 18.5755 39.5826 18.6141 39.648 18.6392L43.3586 20.0667C43.5471 20.1393 43.7092 20.2674 43.8236 20.4339C43.9379 20.6005 43.9991 20.7978 43.9991 20.9998C43.9991 21.2019 43.9379 21.3991 43.8236 21.5657C43.7092 21.7323 43.5471 21.8603 43.3586 21.933L39.648 23.3605C39.5826 23.3856 39.5232 23.4241 39.4737 23.4737C39.4242 23.5232 39.3856 23.5826 39.3605 23.648L37.933 27.3586C37.8605 27.5472 37.7325 27.7095 37.5659 27.824C37.3994 27.9385 37.202 27.9998 36.9999 27.9998Z" stroke="black" stroke-opacity="0.2"/>
</svg>
